{
  "accessors": [
    {
      "bufferView": 2,
      "componentType": 5126,
      "count": 4540,
      "max": [
        0.22053886950016022,
        0.22053903341293335,
        1.6999999284744263
      ],
      "min": [
        -0.22053863108158112,
        -0.22053846716880798,
        0.0006250068545341492
      ],
      "type": "VEC3"
    },
    {
      "bufferView": 2,
      "byteOffset": 54480,
      "componentType": 5126,
      "count": 4540,
      "max": [
        1.0,
        1.0,
        1.0
      ],
      "min": [
        -1.0,
        -1.0,
        -1.0
      ],
      "type": "VEC3"
    },
    {
      "bufferView": 1,
      "componentType": 5126,
      "count": 4540,
      "max": [
        0.9996029138565063,
        0.9948156476020813
      ],
      "min": [
        0.000397075287764892,
        0.000397075287764892
      ],
      "type": "VEC2"
    },
    {
      "bufferView": 1,
      "byteOffset": 36320,
      "componentType": 5126,
      "count": 4540,
      "max": [
        0.9996029138565063,
        0.9948156476020813
      ],
      "min": [
        0.000397075287764892,
        0.000397075287764892
      ],
      "type": "VEC2"
    },
    {
      "bufferView": 1,
      "byteOffset": 72640,
      "componentType": 5126,
      "count": 4540,
      "max": [
        0.9996029138565063,
        0.9948156476020813
      ],
      "min": [
        0.000397075287764892,
        0.000397075287764892
      ],
      "type": "VEC2"
    },
    {
      "bufferView": 0,
      "componentType": 5125,
      "count": 20931,
      "type": "SCALAR"
    }
  ],
  "asset": {
    "extras": {
      "author": "Justin.Foley (https://sketchfab.com/Justin.Foley)",
      "license": "CC-BY-4.0 (http://creativecommons.org/licenses/by/4.0/)",
      "source": "https://sketchfab.com/3d-models/pbr-floor-lamp-free-download-083c9408b89949d8b201e8a1bb6ce41c",
      "title": "PBR Floor Lamp (Free Download)"
    },
    "generator": "Sketchfab-12.68.0",
    "version": "2.0"
  },
  "bufferViews": [
    {
      "buffer": 0,
      "byteLength": 83724,
      "name": "floatBufferViews",
      "target": 34963
    },
    {
      "buffer": 0,
      "byteLength": 108960,
      "byteOffset": 83724,
      "byteStride": 8,
      "name": "floatBufferViews",
      "target": 34962
    },
    {
      "buffer": 0,
      "byteLength": 108960,
      "byteOffset": 192684,
      "byteStride": 12,
      "name": "floatBufferViews",
      "target": 34962
    }
  ],
  "buffers": [
    {
      "byteLength": 301644,
      "uri": "scene.bin"
    }
  ],
  "images": [
    {
      "uri": "textures/Lamp_baseColor.png"
    },
    {
      "uri": "textures/Lamp_metallicRoughness.png"
    },
    {
      "uri": "textures/Lamp_emissive.png"
    }
  ],
  "materials": [
    {
      "doubleSided": true,
      "emissiveFactor": [
        1.0,
        1.0,
        1.0
      ],
      "emissiveTexture": {
        "index": 2
      },
      "name": "Lamp",
      "pbrMetallicRoughness": {
        "baseColorTexture": {
          "index": 0
        },
        "metallicRoughnessTexture": {
          "index": 1
        }
      }
    }
  ],
  "meshes": [
    {
      "name": "Lamp_Lamp_0",
      "primitives": [
        {
          "attributes": {
            "NORMAL": 1,
            "POSITION": 0,
            "TEXCOORD_0": 2,
            "TEXCOORD_1": 3,
            "TEXCOORD_2": 4
          },
          "indices": 5,
          "material": 0,
          "mode": 4
        }
      ]
    }
  ],
  "nodes": [
    {
      "children": [
        1
      ],
      "matrix": [
        -1.0,
        2.8327693431939995e-16,
        -1.6081226229577284e-16,
        0.0,
        1.6081226229577292e-16,
        2.2204460492503128e-16,
        -1.0,
        0.0,
        -2.832769343193999e-16,
        -1.0,
        -2.220446049250313e-16,
        0.0,
        -2.384185245318804e-05,
        -170.0625,
        -2.5326966137393173e-14,
        1.0
      ],
      "name": "Sketchfab_model"
    },
    {
      "children": [
        2
      ],
      "matrix": [
        1.0,
        0.0,
        0.0,
        0.0,
        0.0,
        -1.0,
        0.0,
        0.0,
        0.0,
        0.0,
        -1.0,
        0.0,
        0.0,
        0.0,
        0.0,
        1.0
      ],
      "name": "654aaff74d9e48f6927645dee9b4ee47.fbx"
    },
    {
      "children": [
        3
      ],
      "name": "RootNode"
    },
    {
      "children": [
        4
      ],
      "matrix": [
        -99.99999999999964,
        -8.742277980456493e-06,
        0.0,
        0.0,
        8.742277980456493e-06,
        -99.99999999999964,
        0.0,
        0.0,
        0.0,
        0.0,
        100.0,
        0.0,
        0.0,
        0.0,
        0.0,
        1.0
      ],
      "name": "Lamp"
    },
    {
      "mesh": 0,
      "name": "Lamp_Lamp_0"
    }
  ],
  "samplers": [
    {
      "magFilter": 9729,
      "minFilter": 9987,
      "wrapS": 10497,
      "wrapT": 10497
    }
  ],
  "scene": 0,
  "scenes": [
    {
      "name": "Sketchfab_Scene",
      "nodes": [
        0
      ]
    }
  ],
  "textures": [
    {
      "sampler": 0,
      "source": 0
    },
    {
      "sampler": 0,
      "source": 1
    },
    {
      "sampler": 0,
      "source": 2
    }
  ]
}
