{
  "asset": {
    "generator": "Khronos glTF Blender I/O v4.5.48",
    "version": "2.0"
  },
  "scene": 0,
  "scenes": [
    {
      "name": "Scene",
      "nodes": [
        0
      ]
    }
  ],
  "nodes": [
    {
      "mesh": 0,
      "name": "gothic_coffee_table"
    }
  ],
  "materials": [
    {
      "doubleSided": true,
      "name": "gothic_coffee_table",
      "normalTexture": {
        "index": 0
      },
      "pbrMetallicRoughness": {
        "baseColorTexture": {
          "index": 1
        },
        "metallicFactor": 0,
        "metallicRoughnessTexture": {
          "index": 2
        }
      }
    }
  ],
  "meshes": [
    {
      "name": "Cube.001",
      "primitives": [
        {
          "attributes": {
            "POSITION": 0,
            "NORMAL": 1,
            "TEXCOORD_0": 2
          },
          "indices": 3,
          "material": 0
        }
      ]
    }
  ],
  "textures": [
    {
      "sampler": 0,
      "source": 0
    },
    {
      "sampler": 0,
      "source": 1
    },
    {
      "sampler": 0,
      "source": 2
    }
  ],
  "images": [
    {
      "mimeType": "image/jpeg",
      "name": "gothic_coffee_table_nor_gl",
      "uri": "textures/gothic_coffee_table_nor_gl_4k.jpg"
    },
    {
      "mimeType": "image/jpeg",
      "name": "gothic_coffee_table_diff",
      "uri": "textures/gothic_coffee_table_diff_4k.jpg"
    },
    {
      "mimeType": "image/jpeg",
      "name": "gothic_coffee_table_rough",
      "uri": "textures/gothic_coffee_table_arm_4k.jpg"
    }
  ],
  "accessors": [
    {
      "bufferView": 0,
      "componentType": 5126,
      "count": 21890,
      "max": [
        0.7218159437179565,
        0.5590505003929138,
        0.7220950722694397
      ],
      "min": [
        -0.7212742567062378,
        0.0002775193133857101,
        -0.7209951281547546
      ],
      "type": "VEC3"
    },
    {
      "bufferView": 1,
      "componentType": 5126,
      "count": 21890,
      "type": "VEC3"
    },
    {
      "bufferView": 2,
      "componentType": 5126,
      "count": 21890,
      "type": "VEC2"
    },
    {
      "bufferView": 3,
      "componentType": 5123,
      "count": 71508,
      "type": "SCALAR"
    }
  ],
  "bufferViews": [
    {
      "buffer": 0,
      "byteLength": 262680,
      "byteOffset": 0,
      "target": 34962
    },
    {
      "buffer": 0,
      "byteLength": 262680,
      "byteOffset": 262680,
      "target": 34962
    },
    {
      "buffer": 0,
      "byteLength": 175120,
      "byteOffset": 525360,
      "target": 34962
    },
    {
      "buffer": 0,
      "byteLength": 143016,
      "byteOffset": 700480,
      "target": 34963
    }
  ],
  "samplers": [
    {
      "magFilter": 9729,
      "minFilter": 9987
    }
  ],
  "buffers": [
    {
      "byteLength": 843496,
      "uri": "gothic_coffee_table.bin"
    }
  ]
}