{
  "accessors": [
    {
      "bufferView": 2,
      "componentType": 5126,
      "count": 637,
      "max": [
        1.0005149841308594,
        1.0210859775543213,
        2.0490009784698486
      ],
      "min": [
        -0.8642749786376953,
        -0.7807499766349792,
        -0.02269599959254265
      ],
      "type": "VEC3"
    },
    {
      "bufferView": 2,
      "byteOffset": 7644,
      "componentType": 5126,
      "count": 637,
      "max": [
        0.998866856098175,
        0.9933512210845947,
        0.9977007508277893
      ],
      "min": [
        -0.998866856098175,
        -0.9993980526924133,
        -0.9981669783592224
      ],
      "type": "VEC3"
    },
    {
      "bufferView": 1,
      "componentType": 5126,
      "count": 637,
      "max": [
        0.9990739822387695,
        0.9979280233383179
      ],
      "min": [
        0.0036359999794512987,
        -0.01209300011396408
      ],
      "type": "VEC2"
    },
    {
      "bufferView": 0,
      "componentType": 5125,
      "count": 2208,
      "type": "SCALAR"
    },
    {
      "bufferView": 2,
      "byteOffset": 15288,
      "componentType": 5126,
      "count": 21,
      "max": [
        0.8717920184135437,
        0.7645000219345093,
        -0.11054600030183792
      ],
      "min": [
        -0.8717920184135437,
        -0.9790850281715393,
        -0.11054600030183792
      ],
      "type": "VEC3"
    },
    {
      "bufferView": 2,
      "byteOffset": 15540,
      "componentType": 5126,
      "count": 21,
      "max": [
        0.0,
        0.0,
        1.0
      ],
      "min": [
        0.0,
        0.0,
        0.9999999403953552
      ],
      "type": "VEC3"
    },
    {
      "bufferView": 1,
      "byteOffset": 5096,
      "componentType": 5126,
      "count": 21,
      "max": [
        0.5525820255279541,
        0.7260730266571045
      ],
      "min": [
        0.5525820255279541,
        0.022847000509500504
      ],
      "type": "VEC2"
    },
    {
      "bufferView": 0,
      "byteOffset": 8832,
      "componentType": 5125,
      "count": 60,
      "type": "SCALAR"
    }
  ],
  "asset": {
    "extras": {
      "author": "StarlightLambda64 (https://sketchfab.com/Starlight_lambda64)",
      "license": "SKETCHFAB Standard (https://sketchfab.com/licenses)",
      "source": "https://sketchfab.com/3d-models/pokemon-oras-pikachu-doll-98e09a3ea5c8457bb116e8a6ced14020",
      "title": "[Pokemon OR/AS] Pikachu Doll"
    },
    "generator": "Sketchfab-16.72.0",
    "version": "2.0"
  },
  "bufferViews": [
    {
      "buffer": 0,
      "byteLength": 9072,
      "name": "floatBufferViews",
      "target": 34963
    },
    {
      "buffer": 0,
      "byteLength": 5264,
      "byteOffset": 9072,
      "byteStride": 8,
      "name": "floatBufferViews",
      "target": 34962
    },
    {
      "buffer": 0,
      "byteLength": 15792,
      "byteOffset": 14336,
      "byteStride": 12,
      "name": "floatBufferViews",
      "target": 34962
    }
  ],
  "buffers": [
    {
      "byteLength": 30128,
      "uri": "scene.bin"
    }
  ],
  "images": [
    {
      "uri": "textures/pikatsuudoll.png_baseColor.png"
    },
    {
      "uri": "textures/shadow1.png.023_baseColor.png"
    }
  ],
  "materials": [
    {
      "doubleSided": true,
      "name": "pikatsuudoll.png",
      "pbrMetallicRoughness": {
        "baseColorTexture": {
          "index": 0
        },
        "metallicFactor": 0.0,
        "roughnessFactor": 0.8434915419926713
      }
    },
    {
      "doubleSided": true,
      "name": "shadow1.png.023",
      "pbrMetallicRoughness": {
        "baseColorTexture": {
          "index": 1
        },
        "metallicFactor": 0.0,
        "roughnessFactor": 0.8434915419926713
      }
    }
  ],
  "meshes": [
    {
      "name": "Object_0",
      "primitives": [
        {
          "attributes": {
            "NORMAL": 1,
            "POSITION": 0,
            "TEXCOORD_0": 2
          },
          "indices": 3,
          "material": 0,
          "mode": 4
        }
      ]
    },
    {
      "name": "Object_1",
      "primitives": [
        {
          "attributes": {
            "NORMAL": 5,
            "POSITION": 4,
            "TEXCOORD_0": 6
          },
          "indices": 7,
          "material": 1,
          "mode": 4
        }
      ]
    }
  ],
  "nodes": [
    {
      "children": [
        1
      ],
      "matrix": [
        1.0,
        0.0,
        0.0,
        0.0,
        0.0,
        2.220446049250313e-16,
        -1.0,
        0.0,
        0.0,
        1.0,
        2.220446049250313e-16,
        0.0,
        0.0,
        0.0,
        0.0,
        1.0
      ],
      "name": "Sketchfab_model"
    },
    {
      "children": [
        2,
        3
      ],
      "name": "pikatsuudoll.obj.cleaner.materialmerger.gles"
    },
    {
      "mesh": 0,
      "name": "Object_2"
    },
    {
      "mesh": 1,
      "name": "Object_3"
    }
  ],
  "samplers": [
    {
      "magFilter": 9729,
      "minFilter": 9987,
      "wrapS": 10497,
      "wrapT": 10497
    }
  ],
  "scene": 0,
  "scenes": [
    {
      "name": "Sketchfab_Scene",
      "nodes": [
        0
      ]
    }
  ],
  "textures": [
    {
      "sampler": 0,
      "source": 0
    },
    {
      "sampler": 0,
      "source": 1
    }
  ]
}
