{
  "accessors": [
    {
      "bufferView": 2,
      "componentType": 5126,
      "count": 1481,
      "max": [
        155.4105224609375,
        4.7271881103515625,
        331.12713623046875
      ],
      "min": [
        -155.41050720214844,
        -10.567855834960938,
        -319.7545471191406
      ],
      "type": "VEC3"
    },
    {
      "bufferView": 2,
      "byteOffset": 17772,
      "componentType": 5126,
      "count": 1481,
      "max": [
        0.6794978380203247,
        1.0,
        0.9536529779434204
      ],
      "min": [
        -0.7003034353256226,
        0.19926820695400238,
        -0.9793184995651245
      ],
      "type": "VEC3"
    },
    {
      "bufferView": 1,
      "componentType": 5126,
      "count": 1481,
      "max": [
        0.45947265625,
        0.9712371826171875
      ],
      "min": [
        0.01666259765625,
        0.03369140625
      ],
      "type": "VEC2"
    },
    {
      "bufferView": 0,
      "componentType": 5125,
      "count": 8196,
      "type": "SCALAR"
    }
  ],
  "asset": {
    "extras": {
      "author": "Mehdi Shahsavan (https://sketchfab.com/ahmagh2e)",
      "license": "CC-BY-4.0 (http://creativecommons.org/licenses/by/4.0/)",
      "source": "https://sketchfab.com/3d-models/old-persian-carpet-14-mb-08fee343183d4287a9ac8269ec4e97c5",
      "title": "Old Persian Carpet_14_MB"
    },
    "generator": "Sketchfab-16.59.0",
    "version": "2.0"
  },
  "bufferViews": [
    {
      "buffer": 0,
      "byteLength": 32784,
      "name": "floatBufferViews",
      "target": 34963
    },
    {
      "buffer": 0,
      "byteLength": 11848,
      "byteOffset": 32784,
      "byteStride": 8,
      "name": "floatBufferViews",
      "target": 34962
    },
    {
      "buffer": 0,
      "byteLength": 35544,
      "byteOffset": 44632,
      "byteStride": 12,
      "name": "floatBufferViews",
      "target": 34962
    }
  ],
  "buffers": [
    {
      "byteLength": 80176,
      "uri": "scene.bin"
    }
  ],
  "images": [
    {
      "uri": "textures/Old_Persian_carpet_baseColor.png"
    },
    {
      "uri": "textures/Old_Persian_carpet_metallicRoughness.png"
    }
  ],
  "materials": [
    {
      "doubleSided": true,
      "name": "Old_Persian_carpet",
      "pbrMetallicRoughness": {
        "baseColorTexture": {
          "index": 0
        },
        "metallicFactor": 0.5,
        "metallicRoughnessTexture": {
          "index": 1
        }
      }
    }
  ],
  "meshes": [
    {
      "name": "Old_Persian_carpet_Old Persian carpet_0",
      "primitives": [
        {
          "attributes": {
            "NORMAL": 1,
            "POSITION": 0,
            "TEXCOORD_0": 2
          },
          "indices": 3,
          "material": 0,
          "mode": 4
        }
      ]
    }
  ],
  "nodes": [
    {
      "children": [
        1
      ],
      "matrix": [
        1.0,
        0.0,
        0.0,
        0.0,
        0.0,
        2.220446049250313e-16,
        -1.0,
        0.0,
        0.0,
        1.0,
        2.220446049250313e-16,
        0.0,
        0.0,
        0.0,
        0.0,
        1.0
      ],
      "name": "Sketchfab_model"
    },
    {
      "children": [
        2
      ],
      "matrix": [
        0.009999999776482582,
        0.0,
        0.0,
        0.0,
        0.0,
        0.0,
        0.009999999776482582,
        0.0,
        0.0,
        -0.009999999776482582,
        0.0,
        0.0,
        0.0,
        0.0,
        0.0,
        1.0
      ],
      "name": "503221e8b8244883adbda324ec432353.fbx"
    },
    {
      "children": [
        3,
        5
      ],
      "name": "RootNode"
    },
    {
      "children": [
        4
      ],
      "matrix": [
        0.3279225617618863,
        -0.8274201439229738,
        -0.45589768470349507,
        0.0,
        0.48315127803285085,
        0.5615833913413799,
        -0.6717059900765643,
        0.0,
        0.8118076348635463,
        -1.6653345369377348e-16,
        0.5839249643381034,
        0.0,
        -423.8879699707031,
        924.5158081054688,
        638.3203125,
        1.0
      ],
      "name": "CINEMA_4D_Editor"
    },
    {
      "name": "Object_4"
    },
    {
      "children": [
        6
      ],
      "matrix": [
        1.0,
        0.0,
        0.0,
        0.0,
        0.0,
        1.0,
        0.0,
        0.0,
        0.0,
        0.0,
        1.0,
        0.0,
        0.0,
        10.567855834960938,
        0.0,
        1.0
      ],
      "name": "Old_Persian_carpet"
    },
    {
      "mesh": 0,
      "name": "Old_Persian_carpet_Old Persian carpet_0"
    }
  ],
  "samplers": [
    {
      "magFilter": 9729,
      "minFilter": 9987,
      "wrapS": 10497,
      "wrapT": 10497
    }
  ],
  "scene": 0,
  "scenes": [
    {
      "name": "Sketchfab_Scene",
      "nodes": [
        0
      ]
    }
  ],
  "textures": [
    {
      "sampler": 0,
      "source": 0
    },
    {
      "sampler": 0,
      "source": 1
    }
  ]
}
